<svg xmlns="http://www.w3.org/2000/svg" width="30.5" height="40.5" viewBox="0 0 30.5 40.5">
  <defs>
    <style>
      .cls-1 {
        fill: #fff;
        stroke: #888;
        stroke-width: 0.5px;
        fill-rule: evenodd;
      }
    </style>
  </defs>
  <path id="image_13_Traced_" data-name="image 13 (Traced)" class="cls-1" d="M615.546,206.055a1.656,1.656,0,0,0-.968.993,3.545,3.545,0,0,0-.1.815v0.49h-2.559a26.916,26.916,0,0,0-2.85.083,1.529,1.529,0,0,0-.929.83c-0.138.31-.144,1.017-0.144,17.907,0,17,0,17.6.146,17.913a1.535,1.535,0,0,0,.984.82c0.458,0.128,27.258.124,27.756,0a1.563,1.563,0,0,0,1.02-.995c0.074-.254.1-4.235,0.094-17.823,0-16.8-.007-17.508-0.145-17.818a1.533,1.533,0,0,0-.93-0.83,26.916,26.916,0,0,0-2.85-.083h-2.559v-0.507a1.66,1.66,0,0,0-.807-1.663,1.487,1.487,0,0,0-1.463.031,1.634,1.634,0,0,0-.757,1.5l-0.043.634h-3.962v-0.6a1.5,1.5,0,1,0-2.97,0v0.6h-3.962l-0.043-.634a2.182,2.182,0,0,0-.225-0.964A1.546,1.546,0,0,0,615.546,206.055Zm-1.064,5.787a1.739,1.739,0,0,0,.914,1.587,1.6,1.6,0,0,0,1.614-.281,2,2,0,0,0,.49-1.161l0.051-.444h3.963v0.413a1.471,1.471,0,0,0,1.368,1.564,1.438,1.438,0,0,0,1.588-1.468l0.032-.509h3.967v0.264a1.6,1.6,0,0,0,1.522,1.729,1.766,1.766,0,0,0,1.084-.382,1.8,1.8,0,0,0,.44-1.193v-0.418h3.438V242.8H610.966V211.543h3.516v0.3Zm0.895,9.261a1.613,1.613,0,0,0-.895,1.449,1.846,1.846,0,0,0,.716,1.213l0.331,0.218h7.442c5.067,0,7.511-.027,7.661-0.084a1.76,1.76,0,0,0,.96-1.351,1.608,1.608,0,0,0-.893-1.445c-0.3-.139-0.7-0.147-7.661-0.147S615.677,220.964,615.377,221.1Zm0.349,9.333a1.558,1.558,0,0,0-1.214,1.662,1.635,1.635,0,0,0,.727,1.147l0.3,0.189,7.292,0.021c5.2,0.016,7.385,0,7.617-.068a1.848,1.848,0,0,0,1.076-1.1,1.092,1.092,0,0,0,.008-0.7,1.348,1.348,0,0,0-.709-0.97l-0.36-.216-7.227-.012C619.258,230.385,615.88,230.405,615.726,230.436Z" transform="translate(-607.75 -205.75)"/>
</svg>
