<svg xmlns="http://www.w3.org/2000/svg" width="34.33" height="41.331" viewBox="0 0 34.33 41.331">
  <defs>
    <style>
      .cls-1 {
        fill: #fff;
        stroke: #888;
        stroke-width: 0.3px;
        fill-rule: evenodd;
      }
    </style>
  </defs>
  <path id="image_18_Traced_" data-name="image 18 (Traced)" class="cls-1" d="M1297.01,415.094a2.83,2.83,0,0,0-1.77,1.564l-0.21.444-0.02,9.289c-0.02,10.228-.05,9.707.47,10.491a2.751,2.751,0,0,0,1.5,1.091,6.893,6.893,0,0,0,2.25.161h1.74l0.04,3.425c0.04,3.677.06,3.872,0.52,5.054a7.172,7.172,0,0,0,3.23,3.545l0.38,0.183,0.02,2.449c0.02,2.387.03,2.456,0.2,2.7,0.38,0.532.1,0.511,6.67,0.51l5.94,0,0.31-.179c0.59-.34.61-0.425,0.61-3.122,0-1.926.02-2.385,0.1-2.385a4.713,4.713,0,0,0,.83-0.473,7.134,7.134,0,0,0,3.03-4.335,21.382,21.382,0,0,0,.18-3.98l0.03-3.38,1.89-.027a5.87,5.87,0,0,0,2.35-.211,3.02,3.02,0,0,0,1.48-1.433l0.22-.462V417.1l-0.26-.53a2.742,2.742,0,0,0-1.37-1.338l-0.45-.211L1312.14,415C1300.07,414.991,1297.29,415.008,1297.01,415.094Zm29.51,2.414a2.555,2.555,0,0,1,.12,1.322v1.2h-29.25v-1.2a2.555,2.555,0,0,1,.12-1.322c0.12-.113,1.54-0.126,14.51-0.126S1326.4,417.4,1326.52,417.508Zm0.12,11.425c0,5.94-.01,6.517-0.13,6.651s-0.29.146-1.79,0.146h-1.66l-0.03-2.263a9.627,9.627,0,0,0-.21-2.79,4.395,4.395,0,0,0-8.28-.343,9.813,9.813,0,0,0-.37,3.611v1.785h-8.24c-7.56,0-8.26-.011-8.39-0.133s-0.15-.437-0.15-6.65V422.43h29.25v6.5Zm-25.89-3.441c-0.71.365-.68,0.233-0.68,3.588,0,2.877,0,2.959.16,3.179a1.913,1.913,0,0,0,.44.386c0.26,0.154.42,0.161,3.63,0.161s3.37-.007,3.63-0.161a1.725,1.725,0,0,0,.44-0.386c0.16-.22.17-0.3,0.17-3.179s-0.01-2.959-.17-3.179a1.725,1.725,0,0,0-.44-0.386c-0.26-.153-0.44-0.162-3.55-0.183C1301.11,425.309,1301.11,425.309,1300.75,425.492Zm5.41,3.568-0.02,1.342h-3.68l-0.02-1.342-0.02-1.342h3.76Zm13.34,1.128a2.461,2.461,0,0,1,.59.464c0.55,0.633.52,0.174,0.52,7.4,0,7.189.01,6.929-.51,8.012a4.565,4.565,0,0,1-1.9,1.944l-0.57.3H1306.4l-0.57-.3a4.793,4.793,0,0,1-1.88-1.872c-0.5-1.026-.51-1.08-0.55-4.7l-0.03-3.305h9.05l-0.41.531a7.777,7.777,0,0,0-1.56,4.356,1.7,1.7,0,0,0,.12,1.183,1.176,1.176,0,0,0,2.06-.062,1.615,1.615,0,0,0,.18-0.817,5.661,5.661,0,0,1,2.94-4.764c0.82-.462.78-0.229,0.82-3.869,0.05-3.484.04-3.444,0.56-4.04a2.086,2.086,0,0,1,.96-0.621A2.464,2.464,0,0,1,1319.5,430.188Zm-3.01,21.967V453.6h-8.95v-2.884h8.95v1.442Z" transform="translate(-1294.82 -414.85)"/>
</svg>
