<svg xmlns="http://www.w3.org/2000/svg" width="32.2" height="40.2" viewBox="0 0 32.2 40.2">
  <defs>
    <style>
      .cls-1 {
        fill: #fff;
        stroke: #888;
        stroke-width: 0.2px;
        fill-rule: evenodd;
      }
    </style>
  </defs>
  <path id="image_15_Traced_" data-name="image 15 (Traced)" class="cls-1" d="M1296.69,206.14a1.233,1.233,0,0,0-.5.448l-0.19.3v38.222l0.21,0.318c0.4,0.6.04,0.576,7.4,0.552,6.47-.022,6.51-0.023,6.73-0.186a2.211,2.211,0,0,0,.4-0.421l0.17-.259V206.875l-0.17-.259a2.248,2.248,0,0,0-.4-0.422c-0.22-.162-0.26-0.163-6.77-0.182C1297.31,206,1297,206,1296.69,206.14Zm23.68-.02c-0.13.067-1.66,1.551-3.41,3.3l-3.17,3.175,0.88,0.88,0.87,0.881,2.05-2.051,2.04-2.051V241.74l-2.04-2.051-2.05-2.051-0.87.881-0.88.881,3.17,3.179c3.17,3.176,3.46,3.421,3.96,3.421s0.78-.249,3.91-3.382c1.72-1.726,3.13-3.175,3.13-3.22a7.021,7.021,0,0,0-.86-0.939l-0.85-.857-2.06,2.069-2.07,2.069V210.252l2.07,2.069,2.06,2.07,0.87-.879,0.88-.878-3.19-3.212c-1.79-1.8-3.3-3.259-3.44-3.321A1.186,1.186,0,0,0,1320.37,206.12ZM1308.42,226v17.5h-9.97v-3.75h6.23v-2.5h-6.23V233.5h3.74V231h-3.74v-3.751h6.23v-2.5h-6.23V221h3.74v-2.5h-3.74v-3.75h6.23v-2.5h-6.23v-3.751h9.97V226Z" transform="translate(-1295.9 -205.9)"/>
</svg>
