<svg xmlns="http://www.w3.org/2000/svg" width="39.2" height="40.2" viewBox="0 0 39.2 40.2">
  <defs>
    <style>
      .cls-1 {
        fill: #fff;
        stroke: #888;
        stroke-width: 0.2px;
        fill-rule: evenodd;
      }
    </style>
  </defs>
  <path id="image_16_Traced_" data-name="image 16 (Traced)" class="cls-1" d="M609.067,419.106L606,422.212V456h30.477V436.824l3.227-3.283c2.893-2.943,3.248-3.332,3.429-3.752a3.7,3.7,0,0,0,.044-2.864l-0.166-.39,0.994-1.01,1-1.009-0.808-.821-0.807-.82-1,1.006-1,1.006-0.462-.193a3.663,3.663,0,0,0-1.006-.235,3.384,3.384,0,0,0-2.776,1.083,5.39,5.39,0,0,1-.606.536c-0.027,0-.049-2.267-0.049-5.039V416H612.133Zm25.1,4.335v5.1l-1.793,1.817-1.793,1.817H611.941v2.344h8.1c4.456,0,8.1.026,8.1,0.057s-0.5.559-1.1,1.172l-1.1,1.114H611.941V439.2h5.787c3.182,0,5.787.026,5.787,0.058s-0.693.761-1.539,1.621l-1.539,1.563-0.974,2.343c-0.536,1.288-.99,2.358-1.01,2.378a6.437,6.437,0,0,1-.844-0.778l-0.808-.815-1.293,1.307-1.292,1.307h-3.587v2.344h4.594l0.807-.82,0.808-.821,0.927,0.93,0.927,0.93,3.5-1.5,3.5-1.5,4.238-4.291,4.239-4.291v14.491H608.315V425.141h6.712v-6.8h19.135v5.1Zm-21.449-2.675V422.8h-4.05l2-2.031c1.1-1.118,2.014-2.032,2.025-2.032S612.713,419.648,612.713,420.766Zm27.413,6.141a2.412,2.412,0,0,1,.877.84,1.447,1.447,0,0,1,0,1.115,4.135,4.135,0,0,1-.568.673l-0.451.448-1-1.014-1-1.015,0.456-.466C639.13,426.783,639.579,426.628,640.126,426.907Zm-24.944,1.749v1.172h12.113v-2.344H615.182v1.172ZM632,438.07l-6.365,6.445-1-1.015-1-1.016L630,436.039l6.364-6.445,1,1.016,1,1.015ZM623.745,446c0,0.051-2.7,1.2-2.73,1.162-0.012-.015.24-0.653,0.561-1.416l0.583-1.388,0.793,0.8C623.389,445.6,623.745,445.976,623.745,446Z" transform="translate(-605.9 -415.9)"/>
</svg>
