<svg xmlns="http://www.w3.org/2000/svg" width="40.531" height="40.5" viewBox="0 0 40.531 40.5">
  <defs>
    <style>
      .cls-1 {
        fill: #fff;
        stroke: #888;
        stroke-width: 0.5px;
        fill-rule: evenodd;
      }
    </style>
  </defs>
  <path id="image_14_Traced_" data-name="image 14 (Traced)" class="cls-1" d="M971.159,206.046a20.113,20.113,0,0,0-18.032,17.481,27.347,27.347,0,0,0,.041,5.163,20.143,20.143,0,0,0,1.849,6.038l0.612,1.265-1.28,3.973c-0.7,2.184-1.3,4.108-1.33,4.275a1.561,1.561,0,0,0,1.74,1.74c0.167-.028,2.091-0.627,4.276-1.33l3.973-1.279,1.266,0.612a20.17,20.17,0,0,0,6.038,1.848,27.347,27.347,0,0,0,5.163.041,20.115,20.115,0,0,0,17.38-17.144,25.958,25.958,0,0,0,0-5.475,20.1,20.1,0,0,0-17.028-17.09A29.5,29.5,0,0,0,971.159,206.046Zm3.428,3.13a17.482,17.482,0,0,1,7.374,2.5,16.987,16.987,0,0,1,7.08,9.047,16.508,16.508,0,0,1,.544,8.516,18,18,0,0,1-2.256,5.7,16.936,16.936,0,0,1-23.08,5.508c-0.877-.5-0.9-0.5-4.341.625-1.591.519-2.9,0.936-2.908,0.928s0.409-1.317.927-2.908c1.164-3.572,1.149-3.419.477-4.615a16.9,16.9,0,0,1,9.337-24.515A16.581,16.581,0,0,1,974.587,209.176ZM964.5,224.166a2.264,2.264,0,0,0-.677.461,1.928,1.928,0,1,0,2.725,2.727A1.941,1.941,0,0,0,964.5,224.166Zm7.823,0a2.264,2.264,0,0,0-.677.461,1.928,1.928,0,1,0,2.725,2.727A1.941,1.941,0,0,0,972.326,224.166Zm7.823,0a2.277,2.277,0,0,0-.677.461,1.928,1.928,0,1,0,2.725,2.727A1.941,1.941,0,0,0,980.149,224.166Z" transform="translate(-952.75 -205.75)"/>
</svg>
