<svg xmlns="http://www.w3.org/2000/svg" width="32.2" height="42.2" viewBox="0 0 32.2 42.2">
  <defs>
    <style>
      .cls-1 {
        fill: #fff;
        stroke: #888;
        stroke-width: 0.2px;
        fill-rule: evenodd;
      }
    </style>
  </defs>
  <path id="image_17_Traced_" data-name="image 17 (Traced)" class="cls-1" d="M957,434.77v19.769h2.449V457H961.9v-2.461h22.2V457h2.449v-2.461H989V415H957v19.77Zm14.776-4.963v12.345H959.449V417.461h12.327v12.346Zm14.775,0v12.345H974.225V417.461h12.326v12.346Zm-19.673,0v4.966h2.45l-0.021-4.943-0.021-4.942-1.2-.023-1.2-.023V429.8Zm9.85-4.906c-0.03.03-.055,2.264-0.055,4.963v4.909h2.45v-9.926h-1.171A7.566,7.566,0,0,0,976.728,424.9Zm-4.952,23.448v3.733l-6.143-.021-6.143-.021-0.021-3.609c-0.012-1.985,0-3.656.017-3.712a52.007,52.007,0,0,1,6.165-.1h6.125v3.733Zm14.734,0v3.691l-6.143.021-6.142.021v-7.467l6.142,0.021,6.143,0.021v3.692Zm-23.306.042v1.232l2.429-.022,2.428-.022,0.023-1.21,0.022-1.21h-4.9v1.232Zm14.712-.022,0.023,1.21,2.428,0.022,2.429,0.022v-2.464h-4.9Z" transform="translate(-956.9 -414.9)"/>
</svg>
